<?xml version="1.0" encoding="utf-8"?>
<!-- Generator: Adobe Illustrator 27.3.1, SVG Export Plug-In . SVG Version: 6.00 Build 0)  -->
<svg version="1.1" id="Layer_1" xmlns="http://www.w3.org/2000/svg" xmlns:xlink="http://www.w3.org/1999/xlink" x="0px" y="0px"
	 viewBox="0 0 171 179" style="enable-background:new 0 0 171 179;" xml:space="preserve">
<style type="text/css">
	.st0{fill:#C52327;}
	.st1{fill:#F57E20;}
	.st2{fill:#3B53A4;}
</style>
<g>
	<g>
		<path class="st0" d="M100.1,178.7H12.9c-7.1,0-12.9-5.8-12.9-12.9V78.6c0-7.1,5.8-12.9,12.9-12.9h87.2c7.1,0,12.9,5.8,12.9,12.9
			v87.2C113.1,172.9,107.3,178.7,100.1,178.7z M12.9,75.6c-1.6,0-2.9,1.3-2.9,2.9v87.2c0,1.6,1.3,2.9,2.9,2.9h87.2
			c1.6,0,2.9-1.3,2.9-2.9V78.6c0-1.6-1.3-2.9-2.9-2.9H12.9z"/>
	</g>
</g>
<path class="st1" d="M79.5,147.3c32.7,0,59.3-26.5,59.3-59.3s-26.5-59.3-59.3-59.3c-32.7,0-59.3,26.5-59.3,59.3
	S46.7,147.3,79.5,147.3z"/>
<g>
	<g>
		<path class="st2" d="M157.3,113.1H70.1c-7.1,0-12.9-5.8-12.9-12.9V12.9C57.2,5.8,63,0,70.1,0h87.2c7.1,0,12.9,5.8,12.9,12.9v87.2
			C170.2,107.3,164.4,113.1,157.3,113.1z M70.1,10c-1.6,0-2.9,1.3-2.9,2.9v87.2c0,1.6,1.3,2.9,2.9,2.9h87.2c1.6,0,2.9-1.3,2.9-2.9
			V12.9c0-1.6-1.3-2.9-2.9-2.9H70.1z"/>
	</g>
</g>
</svg>
